<svg preserveAspectRatio="none" width="100%" height="100%" overflow="visible" style="display: block;" viewBox="0 0 40 40" fill="none" xmlns="http://www.w3.org/2000/svg">
<g id="Icon">
<path id="Vector" d="M6.66668 23.3334C6.35129 23.3344 6.04206 23.246 5.77494 23.0783C5.50781 22.9106 5.29374 22.6706 5.1576 22.3861C5.02146 22.1016 4.96883 21.7843 5.00585 21.4711C5.04286 21.1579 5.16798 20.8616 5.36668 20.6167L21.8667 3.61668C21.9904 3.47382 22.1591 3.37728 22.345 3.34291C22.5309 3.30853 22.7229 3.33837 22.8896 3.42752C23.0562 3.51668 23.1877 3.65985 23.2622 3.83353C23.3368 4.00722 23.3501 4.2011 23.3 4.38335L20.1 14.4167C20.0057 14.6692 19.974 14.9409 20.0077 15.2084C20.0414 15.4758 20.1394 15.7312 20.2935 15.9524C20.4475 16.1736 20.653 16.3542 20.8921 16.4786C21.1313 16.603 21.3971 16.6676 21.6667 16.6667H33.3333C33.6487 16.6656 33.958 16.754 34.2251 16.9217C34.4922 17.0894 34.7063 17.3294 34.8424 17.6139C34.9786 17.8984 35.0312 18.2157 34.9942 18.5289C34.9572 18.8421 34.832 19.1384 34.6333 19.3834L18.1333 36.3833C18.0096 36.5262 17.8409 36.6228 17.655 36.6571C17.4692 36.6915 17.2771 36.6617 17.1105 36.5725C16.9438 36.4834 16.8124 36.3402 16.7378 36.1665C16.6632 35.9928 16.6499 35.7989 16.7 35.6167L19.9 25.5834C19.9944 25.3308 20.0261 25.0592 19.9924 24.7917C19.9587 24.5242 19.8606 24.2689 19.7065 24.0476C19.5525 23.8264 19.3471 23.6458 19.1079 23.5214C18.8687 23.397 18.6029 23.3325 18.3333 23.3334H6.66668Z" stroke="var(--stroke-0, #F5F5F5)" stroke-width="3.33333" stroke-linecap="round" stroke-linejoin="round"/>
</g>
</svg>
